<?xml version="1.0" standalone="no"?>
<!DOCTYPE svg PUBLIC "-//W3C//DTD SVG 20010904//EN"
 "http://www.w3.org/TR/2001/REC-SVG-20010904/DTD/svg10.dtd">
<svg version="1.0" xmlns="http://www.w3.org/2000/svg"
 width="700.000000pt" height="700.000000pt" viewBox="0 0 700.000000 700.000000"
 preserveAspectRatio="xMidYMid meet">
<metadata>
Created by potrace 1.14, written by Peter Selinger 2001-2017
</metadata>
<g transform="translate(0.000000,700.000000) scale(0.100000,-0.100000)"
fill="#000000" stroke="none">
<path d="M5032 6198 l-218 -218 -216 215 c-118 118 -219 215 -223 215 -4 0
-104 -97 -222 -215 l-216 -216 -193 193 c-105 106 -204 204 -218 218 l-27 24
-217 -217 -218 -217 -214 215 c-118 118 -219 215 -223 215 -5 0 -106 -97 -225
-215 l-216 -216 -215 216 -216 216 -3 -2039 -2 -2038 -423 1 c-232 0 -429 -1
-437 -3 -14 -3 -15 -60 -14 -480 0 -262 4 -497 8 -522 57 -356 312 -635 663
-722 l88 -22 1870 0 1870 0 85 23 c341 92 585 352 651 691 10 51 13 610 13
2588 1 1387 -1 2522 -3 2522 -2 0 -101 -97 -219 -216 l-216 -215 -218 218
-217 219 -219 -218z m505 -661 c2 -3 4 -935 4 -2072 l0 -2067 -24 -51 c-34
-75 -70 -112 -140 -147 -101 -49 -201 -42 -293 21 -49 33 -100 106 -115 163
-7 27 -11 197 -11 493 0 335 -3 452 -11 455 -7 2 -597 3 -1313 3 l-1300 -1 0
1603 0 1602 70 3 c115 5 3128 0 3133 -5z m-1162 -4079 l0 -288 -25 -1 c-14 0
-610 -2 -1325 -2 -1432 -2 -1357 -5 -1449 60 -48 34 -93 102 -107 161 -7 33
-12 185 -10 315 l1 47 1457 -2 1458 -3 0 -287z"/>
<path d="M2627 4952 c-3 -6 -1 -560 2 -572 0 -3 394 -5 873 -5 l873 0 0 292 0
291 -872 0 c-480 1 -874 -2 -876 -6z"/>
<path d="M4667 4952 c-1 -4 -2 -135 -2 -292 l1 -285 292 0 292 0 0 292 0 292
-290 0 c-159 -1 -291 -4 -293 -7z"/>
<path d="M2631 4080 c-4 -3 -7 -133 -6 -290 l0 -285 875 -3 875 -2 -1 287 c-1
159 -2 290 -3 293 0 3 -391 5 -867 5 -476 0 -869 -2 -873 -5z"/>
<path d="M4671 4070 c-4 -8 -6 -139 -6 -290 l1 -275 292 -3 292 -2 0 290 c0
159 -3 290 -7 291 -5 1 -133 2 -286 2 -239 2 -280 0 -286 -13z"/>
</g>
</svg>
